<?xml version="1.0" standalone="no"?>
<!DOCTYPE svg PUBLIC "-//W3C//DTD SVG 20010904//EN"
 "http://www.w3.org/TR/2001/REC-SVG-20010904/DTD/svg10.dtd">
<svg version="1.0" xmlns="http://www.w3.org/2000/svg"
 width="512.000000pt" height="512.000000pt" viewBox="0 0 512.000000 512.000000"
 preserveAspectRatio="xMidYMid meet">
<metadata>
Created by potrace 1.11, written by Peter Selinger 2001-2013
</metadata>
<g transform="translate(0.000000,512.000000) scale(0.100000,-0.100000)"
fill="#000000" stroke="none">
<path d="M2710 3400 c-300 -302 -548 -549 -551 -549 -15 -2 -464 458 -502 513
-23 33 -55 69 -70 80 l-29 21 -186 -190 c-397 -403 -769 -838 -1078 -1260
-100 -136 -218 -307 -238 -345 -5 -8 204 196 463 455 l471 470 1 -190 c0 -105
1 -365 2 -580 l2 -390 135 -1 c74 0 140 3 146 7 6 5 10 65 9 160 l0 152 83 88
83 88 33 -37 c18 -20 109 -132 203 -247 l170 -210 171 0 c114 -1 169 3 165 10
-7 11 -57 77 -85 110 -9 11 -112 142 -229 290 -117 149 -218 273 -223 277 -11
7 -1 23 60 88 23 25 55 59 71 76 15 17 72 77 125 135 53 57 115 124 137 148
l40 43 119 -116 119 -117 1 -407 c0 -224 1 -436 1 -472 l1 -66 143 2 c78 1
144 2 147 3 3 0 4 79 3 174 l-2 174 134 -1 134 -1 121 -175 121 -175 155 0
c85 0 154 3 154 8 0 4 -46 74 -103 155 -127 182 -169 244 -165 247 2 1 21 12
43 23 98 49 185 175 203 294 32 205 -59 388 -233 473 -117 58 -160 63 -522 64
-258 1 -333 -1 -333 -11 0 -9 -3 -9 -11 -1 -9 9 107 131 466 489 l477 477 668
-668 c504 -504 667 -672 662 -685 -10 -24 -224 -382 -227 -378 -1 2 -107 177
-235 391 l-233 387 -123 0 -123 0 2 -632 2 -633 137 0 138 -1 2 365 3 365 180
-297 180 -297 70 2 70 3 157 265 c87 146 168 281 181 300 l22 35 5 -370 5
-370 135 0 135 0 0 630 -1 630 -121 3 -121 3 -44 -73 c-24 -40 -50 -86 -57
-101 l-15 -28 -49 48 c-26 26 -353 353 -725 725 -372 373 -679 677 -682 677
-3 0 -250 -248 -550 -549z m-930 -475 l225 -225 -81 0 -82 0 -145 -152 c-80
-84 -167 -176 -194 -204 -140 -149 -212 -224 -215 -224 -2 0 -3 130 -3 290 l1
290 -96 0 -95 0 225 225 c124 124 227 225 230 225 3 0 106 -101 230 -225z
m1240 -501 c42 -23 60 -41 78 -76 54 -107 21 -238 -71 -287 -22 -12 -45 -21
-52 -21 -7 0 -90 77 -184 172 -168 168 -172 173 -169 211 l2 39 171 -4 c168
-3 171 -3 225 -34z m-340 -400 c0 -2 -12 -2 -27 -1 -23 2 -29 8 -31 30 l-3 28
30 -27 c17 -15 31 -29 31 -30z"/>
<path d="M1010 1300 c0 -59 16 -83 27 -40 3 11 9 20 14 20 5 0 14 -9 21 -20
12 -19 38 -28 38 -12 0 4 -9 18 -19 32 -19 24 -19 25 1 49 28 36 2 41 -28 6
-23 -26 -29 -23 -25 13 1 6 -5 12 -14 12 -12 0 -15 -13 -15 -60z"/>
<path d="M1130 1299 c0 -44 3 -60 13 -56 18 6 19 117 1 117 -10 0 -14 -15 -14
-61z"/>
<path d="M1180 1299 c0 -44 3 -60 13 -56 18 6 19 117 1 117 -10 0 -14 -15 -14
-61z"/>
<path d="M1227 1354 c-11 -11 3 -24 18 -17 12 4 15 -5 15 -46 0 -39 4 -51 15
-51 11 0 15 12 15 50 0 44 3 50 21 50 11 0 17 5 14 10 -7 11 -88 14 -98 4z"/>
<path d="M1402 1353 c-21 -8 -33 -50 -22 -78 10 -27 47 -41 79 -30 28 9 16 26
-16 23 -32 -4 -53 24 -37 50 8 11 22 16 43 14 33 -2 42 12 15 22 -18 7 -43 7
-62 -1z"/>
<path d="M1512 1344 c-17 -12 -22 -24 -20 -47 6 -60 91 -77 116 -22 28 60 -40
109 -96 69z m69 -25 c14 -22 11 -37 -12 -49 -24 -13 -49 2 -49 29 0 36 42 50
61 20z"/>
<path d="M1632 1300 c-2 -48 1 -60 13 -60 8 0 15 7 15 15 0 8 6 15 14 15 7 0
19 -7 26 -15 18 -22 28 -18 29 10 1 14 1 37 2 51 1 32 -15 44 -61 44 l-35 0
-3 -60z m67 31 c19 -12 6 -41 -19 -41 -15 0 -20 7 -20 25 0 26 14 31 39 16z"/>
<path d="M1751 1300 c0 -47 3 -60 14 -60 8 0 15 6 15 14 0 7 13 16 30 19 21 5
31 14 36 33 9 33 -15 54 -62 54 l-32 0 -1 -60z m64 15 c0 -11 -8 -21 -17 -23
-14 -3 -18 3 -18 23 0 20 4 26 18 23 9 -2 17 -12 17 -23z"/>
<path d="M1887 1348 c-9 -7 -19 -25 -22 -40 -8 -33 23 -68 60 -68 30 0 65 32
65 60 0 46 -65 76 -103 48z m61 -20 c17 -17 15 -43 -4 -59 -31 -26 -70 25 -44
56 15 18 32 19 48 3z"/>
<path d="M2010 1300 c0 -47 3 -60 15 -60 8 0 15 7 15 15 0 8 6 15 14 15 8 0
16 -7 20 -15 6 -17 61 -21 71 -5 3 6 17 10 30 10 13 0 27 -4 30 -10 3 -5 12
-10 20 -10 12 0 12 6 -1 38 -40 101 -53 105 -84 27 -12 -30 -26 -55 -31 -55
-15 0 -21 22 -10 33 31 31 -2 77 -55 77 l-34 0 0 -60z m68 12 c3 -17 -2 -22
-17 -22 -16 0 -21 6 -21 26 0 33 33 30 38 -4z m112 -18 c0 -8 -7 -14 -15 -14
-17 0 -18 2 -9 24 7 18 24 12 24 -10z"/>
<path d="M2240 1350 c0 -5 7 -10 15 -10 11 0 15 -12 15 -50 0 -38 4 -50 15
-50 11 0 15 12 15 50 0 37 4 50 14 50 8 0 18 5 21 10 4 6 -13 10 -44 10 -28 0
-51 -4 -51 -10z"/>
<path d="M2350 1300 l0 -60 45 0 c25 0 45 5 45 10 0 6 -13 10 -30 10 -20 0
-30 5 -30 15 0 9 9 15 25 15 14 0 25 5 25 10 0 6 -11 10 -25 10 -16 0 -25 6
-25 15 0 10 10 15 30 15 17 0 30 5 30 10 0 6 -20 10 -45 10 l-45 0 0 -60z"/>
<path d="M2502 1300 c-1 -46 2 -60 14 -60 7 0 14 7 14 15 0 8 6 15 14 15 8 0
16 -7 20 -15 3 -8 13 -15 22 -15 13 0 14 3 5 14 -9 11 -9 19 0 34 10 16 10 26
1 46 -9 21 -18 26 -50 26 l-38 0 -2 -60z m66 12 c3 -17 -2 -22 -17 -22 -16 0
-21 6 -21 26 0 33 33 30 38 -4z"/>
<path d="M2622 1300 l1 -60 44 0 c23 0 43 5 43 10 0 6 -13 10 -30 10 -20 0
-30 5 -30 15 0 9 9 15 25 15 14 0 25 5 25 10 0 6 -11 10 -25 10 -16 0 -25 6
-25 15 0 10 10 15 30 15 17 0 30 5 30 10 0 6 -20 10 -44 10 l-45 0 1 -60z"/>
<path d="M2731 1300 l-2 -60 55 0 c30 0 58 5 61 10 3 6 17 10 30 10 13 0 27
-4 30 -10 3 -5 12 -10 20 -10 19 0 -27 114 -48 118 -9 2 -22 -16 -35 -48 -19
-46 -24 -50 -52 -48 -29 2 -30 4 -30 50 0 34 -4 48 -14 48 -9 0 -14 -17 -15
-60z m159 -6 c0 -8 -7 -14 -15 -14 -17 0 -18 2 -9 24 7 18 24 12 24 -10z"/>
<path d="M2935 1350 c-3 -5 3 -10 14 -10 18 0 21 -6 21 -50 0 -38 4 -50 15
-50 11 0 15 12 15 51 0 27 4 48 9 45 5 -3 14 1 21 9 11 13 6 15 -38 15 -28 0
-54 -4 -57 -10z"/>
<path d="M3050 1300 c0 -46 3 -60 15 -60 12 0 14 13 13 60 -1 42 -5 60 -15 60
-9 0 -13 -17 -13 -60z"/>
<path d="M3110 1340 c-11 -11 -20 -25 -20 -31 0 -15 21 -53 34 -61 36 -24 96
11 96 56 0 50 -73 73 -110 36z m68 -12 c17 -17 15 -43 -4 -59 -31 -26 -70 25
-44 56 15 18 32 19 48 3z"/>
<path d="M3240 1300 c0 -48 3 -60 16 -60 13 0 15 8 12 37 l-4 36 31 -36 c46
-53 56 -48 54 23 -2 42 -6 60 -16 60 -8 0 -13 -13 -13 -37 l0 -36 -27 36 c-41
53 -53 48 -53 -23z"/>
<path d="M3376 1345 c-9 -9 -16 -20 -16 -24 0 -12 22 -28 44 -32 11 -2 21 -10
24 -18 4 -11 -3 -13 -32 -8 -36 6 -50 -6 -20 -17 25 -10 59 -7 72 6 21 21 13
39 -23 54 -40 16 -38 39 2 29 18 -4 24 -2 21 7 -7 20 -53 21 -72 3z"/>
<path d="M3471 1300 c1 -43 5 -60 15 -60 8 0 14 11 14 26 0 22 4 25 28 22 22
-2 26 -7 24 -25 -2 -16 2 -23 12 -23 13 0 16 12 16 60 0 47 -3 60 -15 60 -9 0
-15 -9 -15 -25 0 -20 -5 -25 -25 -25 -20 0 -25 5 -25 25 0 16 -6 25 -15 25
-12 0 -15 -13 -14 -60z"/>
<path d="M3610 1300 c0 -44 4 -60 14 -60 10 0 13 16 13 60 0 43 -4 60 -14 60
-9 0 -13 -17 -13 -60z"/>
<path d="M3660 1300 c0 -47 3 -60 15 -60 8 0 15 7 15 15 0 9 9 15 25 15 22 0
45 24 45 49 0 20 -33 41 -66 41 l-34 0 0 -60z m68 17 c4 -22 -27 -35 -38 -16
-10 15 7 42 24 36 6 -2 12 -11 14 -20z"/>
<path d="M3827 1353 c-2 -5 -3 -30 -3 -57 1 -57 23 -76 28 -24 l4 33 13 -27
c8 -16 17 -28 21 -28 4 0 13 12 21 28 l13 27 4 -31 c3 -27 7 -31 32 -32 16 0
32 4 35 9 8 12 52 12 60 -1 3 -5 12 -10 20 -10 19 0 -27 114 -48 118 -9 2 -22
-16 -37 -53 -12 -31 -25 -53 -29 -50 -3 4 -6 27 -6 52 0 26 -4 48 -10 50 -5 1
-21 -14 -34 -34 l-24 -37 -19 37 c-18 35 -32 46 -41 30z m213 -59 c0 -8 -6
-14 -14 -14 -9 0 -12 7 -9 20 6 22 23 18 23 -6z"/>
<path d="M4107 1353 c-3 -5 -5 -32 -4 -60 0 -38 4 -53 13 -53 9 0 14 12 14 37
l0 36 28 -36 c40 -53 52 -48 52 23 0 47 -3 60 -15 60 -9 0 -15 -6 -14 -12 1
-7 1 -22 0 -33 -1 -17 -5 -16 -29 13 -28 33 -37 38 -45 25z"/>
<path d="M4262 1338 c-6 -13 -18 -40 -26 -60 -13 -32 -13 -38 -1 -38 8 0 17 5
20 10 3 6 17 10 30 10 13 0 27 -4 30 -10 3 -5 12 -10 20 -10 10 0 7 15 -12 60
-28 64 -43 73 -61 38z m38 -50 c0 -5 -7 -8 -15 -8 -15 0 -20 21 -8 33 7 7 23
-11 23 -25z"/>
<path d="M4364 1335 c-33 -50 11 -106 70 -91 20 5 26 13 26 32 0 14 -5 24 -11
22 -6 -2 -10 -7 -9 -12 1 -5 -6 -13 -15 -19 -25 -13 -49 14 -41 46 5 22 10 25
41 21 35 -4 48 9 19 20 -33 13 -64 6 -80 -19z"/>
<path d="M4481 1300 l-1 -60 45 0 c25 0 45 5 45 10 0 6 -13 10 -30 10 -20 0
-30 5 -30 15 0 9 9 15 25 15 14 0 25 5 25 10 0 6 -11 10 -25 10 -16 0 -25 6
-25 15 0 10 10 15 30 15 17 0 30 5 30 10 0 6 -20 10 -44 10 l-43 0 -2 -60z"/>
<path d="M4595 1300 c0 -42 4 -60 12 -60 8 0 13 13 13 33 l1 32 16 -29 c15
-28 16 -29 29 -11 8 10 14 23 14 28 0 4 4 6 9 3 5 -4 8 -17 6 -31 -1 -16 3
-25 11 -25 10 0 14 16 14 60 0 69 -11 76 -42 24 l-21 -36 -20 36 c-30 52 -42
45 -42 -24z"/>
<path d="M4750 1300 l0 -60 45 0 c25 0 45 5 45 10 0 6 -13 10 -30 10 -20 0
-30 5 -30 15 0 9 9 15 25 15 14 0 25 5 25 10 0 6 -11 10 -25 10 -16 0 -25 6
-25 15 0 10 10 15 30 15 17 0 30 5 30 10 0 6 -20 10 -45 10 l-45 0 0 -60z"/>
<path d="M4860 1300 c0 -48 3 -60 16 -60 13 0 15 8 12 36 l-4 37 23 -29 c13
-16 23 -32 23 -36 0 -5 7 -8 15 -8 12 0 15 13 15 60 0 45 -3 60 -14 60 -9 0
-16 -12 -18 -32 l-3 -33 -20 33 c-30 50 -45 42 -45 -28z"/>
<path d="M4980 1351 c0 -6 7 -11 15 -11 11 0 15 -12 15 -50 0 -38 4 -50 15
-50 11 0 15 12 15 50 0 39 3 50 14 48 8 -2 16 2 18 7 2 6 -18 11 -44 13 -29 2
-48 -1 -48 -7z"/>
<path d="M2188 1163 c6 -2 18 -2 25 0 6 3 1 5 -13 5 -14 0 -19 -2 -12 -5z"/>
<path d="M2268 1163 c7 -3 16 -2 19 1 4 3 -2 6 -13 5 -11 0 -14 -3 -6 -6z"/>
<path d="M2398 1163 c7 -3 16 -2 19 1 4 3 -2 6 -13 5 -11 0 -14 -3 -6 -6z"/>
<path d="M2468 1163 c6 -2 18 -2 25 0 6 3 1 5 -13 5 -14 0 -19 -2 -12 -5z"/>
<path d="M2548 1163 c7 -3 16 -2 19 1 4 3 -2 6 -13 5 -11 0 -14 -3 -6 -6z"/>
<path d="M2588 1163 c6 -2 18 -2 25 0 6 3 1 5 -13 5 -14 0 -19 -2 -12 -5z"/>
<path d="M2668 1163 c7 -3 16 -2 19 1 4 3 -2 6 -13 5 -11 0 -14 -3 -6 -6z"/>
<path d="M2708 1163 c7 -3 16 -2 19 1 4 3 -2 6 -13 5 -11 0 -14 -3 -6 -6z"/>
<path d="M2748 1163 c6 -2 18 -2 25 0 6 3 1 5 -13 5 -14 0 -19 -2 -12 -5z"/>
<path d="M2828 1163 c7 -3 16 -2 19 1 4 3 -2 6 -13 5 -11 0 -14 -3 -6 -6z"/>
<path d="M2868 1163 c7 -3 16 -2 19 1 4 3 -2 6 -13 5 -11 0 -14 -3 -6 -6z"/>
<path d="M2908 1163 c6 -2 18 -2 25 0 6 3 1 5 -13 5 -14 0 -19 -2 -12 -5z"/>
<path d="M2988 1163 c7 -3 16 -2 19 1 4 3 -2 6 -13 5 -11 0 -14 -3 -6 -6z"/>
<path d="M3028 1163 c7 -3 16 -2 19 1 4 3 -2 6 -13 5 -11 0 -14 -3 -6 -6z"/>
<path d="M3068 1163 c6 -2 18 -2 25 0 6 3 1 5 -13 5 -14 0 -19 -2 -12 -5z"/>
<path d="M3148 1163 c7 -3 16 -2 19 1 4 3 -2 6 -13 5 -11 0 -14 -3 -6 -6z"/>
<path d="M3188 1163 c7 -3 16 -2 19 1 4 3 -2 6 -13 5 -11 0 -14 -3 -6 -6z"/>
<path d="M3228 1163 c6 -2 18 -2 25 0 6 3 1 5 -13 5 -14 0 -19 -2 -12 -5z"/>
<path d="M3308 1163 c7 -3 16 -2 19 1 4 3 -2 6 -13 5 -11 0 -14 -3 -6 -6z"/>
<path d="M3348 1163 c7 -3 16 -2 19 1 4 3 -2 6 -13 5 -11 0 -14 -3 -6 -6z"/>
<path d="M3388 1163 c6 -2 18 -2 25 0 6 3 1 5 -13 5 -14 0 -19 -2 -12 -5z"/>
<path d="M3468 1163 c7 -3 16 -2 19 1 4 3 -2 6 -13 5 -11 0 -14 -3 -6 -6z"/>
<path d="M3513 1163 c9 -2 23 -2 30 0 6 3 -1 5 -18 5 -16 0 -22 -2 -12 -5z"/>
<path d="M3588 1163 c7 -3 16 -2 19 1 4 3 -2 6 -13 5 -11 0 -14 -3 -6 -6z"/>
<path d="M3628 1163 c7 -3 16 -2 19 1 4 3 -2 6 -13 5 -11 0 -14 -3 -6 -6z"/>
<path d="M3668 1163 c7 -3 16 -2 19 1 4 3 -2 6 -13 5 -11 0 -14 -3 -6 -6z"/>
<path d="M3708 1163 c6 -2 18 -2 25 0 6 3 1 5 -13 5 -14 0 -19 -2 -12 -5z"/>
<path d="M3788 1163 c7 -3 16 -2 19 1 4 3 -2 6 -13 5 -11 0 -14 -3 -6 -6z"/>
<path d="M3828 1163 c6 -2 18 -2 25 0 6 3 1 5 -13 5 -14 0 -19 -2 -12 -5z"/>
<path d="M3908 1163 c6 -2 18 -2 25 0 6 3 1 5 -13 5 -14 0 -19 -2 -12 -5z"/>
<path d="M4108 1163 c6 -2 18 -2 25 0 6 3 1 5 -13 5 -14 0 -19 -2 -12 -5z"/>
<path d="M4188 1163 c7 -3 16 -2 19 1 4 3 -2 6 -13 5 -11 0 -14 -3 -6 -6z"/>
<path d="M4318 1163 c7 -3 16 -2 19 1 4 3 -2 6 -13 5 -11 0 -14 -3 -6 -6z"/>
<path d="M4388 1163 c6 -2 18 -2 25 0 6 3 1 5 -13 5 -14 0 -19 -2 -12 -5z"/>
<path d="M4588 1163 c6 -2 18 -2 25 0 6 3 1 5 -13 5 -14 0 -19 -2 -12 -5z"/>
<path d="M4668 1163 c7 -3 16 -2 19 1 4 3 -2 6 -13 5 -11 0 -14 -3 -6 -6z"/>
<path d="M4798 1163 c6 -2 18 -2 25 0 6 3 1 5 -13 5 -14 0 -19 -2 -12 -5z"/>
</g>
</svg>
